# xmcd
#
# Track frame offsets: 
#        182
#        12465
#        29600
#        40952
#        62150
#        76582
#        95125
#        117890
#        132217
#        148287
#        160575
#        173847
#
# Disc length: 2475 seconds
#
# Revision: 3
# Processed by: cddbd v1.5.1PL0 Copyright (c) Steve Scherf et al.
# Submitted via: ExactAudioCopy v0.95b2
#
DISCID=a009a90c
DTITLE=Lokalka Live - Tragedy country
DYEAR=1992
DGENRE=Comedy
TTITLE0=Vyznani citove vyprahle jalovice
TTITLE1=Balicek karet
TTITLE2=Lehkej krok
TTITLE3=Pernikova chaloupka
TTITLE4=Jaro
TTITLE5=Kdo vaha
TTITLE6=Kouzelne zrcadlo
TTITLE7=Jeste ja se podivam
TTITLE8=O otesankovi
TTITLE9=Troska jazzu
TTITLE10=Zpatky do Evropy
TTITLE11=Zlate strevicky
EXTD=YEAR: 1992
EXTT0=
EXTT1=
EXTT2=
EXTT3=
EXTT4=
EXTT5=
EXTT6=
EXTT7=
EXTT8=
EXTT9=
EXTT10=
EXTT11=
PLAYORDER=
